<svg xmlns="http://www.w3.org/2000/svg" width="800" height="400" viewBox="0 0 800 400"><rect width="100%" height="100%" fill="#DDDDDD"/><path fill="#999999" d="M189.195 180.445h7.43v39.77h-7.43v-17.38h-18.67v17.38h-7.42v-39.77h7.42v17.11h18.67zm30.12 32.48v-4.75q-2.95.13-4.95.5-2.01.37-3.22.95t-1.73 1.35q-.53.77-.53 1.68 0 1.78 1.06 2.56 1.06.76 2.77.76 2.09 0 3.61-.75 1.53-.76 2.99-2.3m-14.36-14.82-1.21-2.17q4.87-4.46 11.72-4.46 2.47 0 4.42.81 1.96.82 3.3 2.26 1.35 1.44 2.05 3.45t.7 4.4v17.82h-3.08q-.96 0-1.48-.29t-.83-1.17l-.6-2.03q-1.07.96-2.09 1.69t-2.12 1.22q-1.1.5-2.35.76t-2.76.26q-1.79 0-3.3-.48-1.52-.48-2.62-1.45-1.1-.96-1.7-2.39-.61-1.43-.61-3.33 0-1.07.36-2.13.36-1.05 1.17-2.02.81-.96 2.1-1.81 1.3-.86 3.18-1.49t4.39-1.03q2.5-.4 5.72-.48v-1.65q0-2.83-1.21-4.19-1.21-1.37-3.5-1.37-1.65 0-2.73.39-1.09.38-1.91.87-.83.48-1.5.86-.68.39-1.5.39-.72 0-1.21-.37-.5-.37-.8-.87m33.25-4.87.47 2.23q.85-.85 1.8-1.58t2-1.24q1.06-.51 2.27-.8t2.64-.29q2.31 0 4.1.79 1.79.78 2.98 2.2 1.2 1.42 1.82 3.38.62 1.97.62 4.33v17.96h-6.79v-17.96q0-2.58-1.19-4-1.18-1.42-3.6-1.42-1.76 0-3.3.8t-2.91 2.17v20.41h-6.8v-28.21h4.16q1.32 0 1.73 1.23m42.84 18.62v-12.65q-1.15-1.4-2.51-1.98t-2.93-.58q-1.54 0-2.78.58t-2.12 1.75-1.34 2.97q-.47 1.8-.47 4.24 0 2.48.4 4.2t1.14 2.8q.74 1.09 1.81 1.57 1.08.48 2.4.48 2.11 0 3.6-.88 1.48-.88 2.8-2.5m0-32.51h6.8v40.87h-4.16q-1.34 0-1.7-1.24l-.58-2.72q-1.7 1.95-3.92 3.16-2.21 1.21-5.15 1.21-2.31 0-4.24-.96-1.92-.96-3.31-2.79t-2.15-4.53q-.75-2.69-.75-6.16 0-3.13.85-5.83.85-2.69 2.45-4.67 1.59-1.98 3.82-3.09 2.23-1.12 5-1.12 2.37 0 4.05.74 1.67.75 2.99 2.01zm35.51 16.15-1.79 2.47q-.3.39-.59.61t-.84.22q-.52 0-1.02-.32-.49-.31-1.18-.71t-1.64-.72q-.95-.31-2.35-.31-1.79 0-3.13.64-1.35.65-2.25 1.86-.89 1.21-1.33 2.93-.44 1.71-.44 3.89 0 2.25.48 4.01t1.39 2.96q.91 1.19 2.2 1.81t2.92.62q1.62 0 2.62-.4 1.01-.39 1.69-.88.69-.48 1.2-.88t1.14-.4q.83 0 1.24.64l1.95 2.47q-1.13 1.32-2.45 2.22-1.32.89-2.73 1.43-1.42.53-2.92.75t-2.98.22q-2.61 0-4.92-.97-2.31-.98-4.05-2.85-1.73-1.87-2.73-4.58-1.01-2.71-1.01-6.17 0-3.11.9-5.76.89-2.66 2.62-4.6 1.74-1.94 4.29-3.03 2.56-1.11 5.89-1.11 3.16 0 5.54 1.02t4.28 2.92m10.5-1.79.41 3.19q1.32-2.53 3.14-3.97 1.81-1.45 4.29-1.45 1.95 0 3.13.85l-.44 5.09q-.13.5-.4.7-.26.21-.7.21-.41 0-1.22-.14-.81-.13-1.58-.13-1.13 0-2.01.32-.88.34-1.58.95-.7.62-1.24 1.5-.53.88-1 2.01v17.38h-6.79v-28.21h3.98q1.05 0 1.46.37t.55 1.33m29.43 19.22v-4.75q-2.95.13-4.95.5-2.01.37-3.22.95t-1.73 1.35q-.53.77-.53 1.68 0 1.78 1.06 2.56 1.06.76 2.77.76 2.09 0 3.61-.75 1.53-.76 2.99-2.3m-14.36-14.82-1.21-2.17q4.87-4.46 11.72-4.46 2.47 0 4.42.81 1.96.82 3.3 2.26 1.35 1.44 2.05 3.45t.7 4.4v17.82h-3.08q-.96 0-1.48-.29t-.83-1.17l-.6-2.03q-1.07.96-2.09 1.69t-2.12 1.22q-1.1.5-2.35.76t-2.76.26q-1.79 0-3.3-.48-1.52-.48-2.62-1.45-1.1-.96-1.7-2.39-.61-1.43-.61-3.33 0-1.07.36-2.13.36-1.05 1.17-2.02.81-.96 2.1-1.81 1.3-.86 3.18-1.49t4.39-1.03q2.5-.4 5.72-.48v-1.65q0-2.83-1.21-4.19-1.21-1.37-3.5-1.37-1.65 0-2.73.39-1.09.38-1.91.87-.83.48-1.5.86-.68.39-1.5.39-.72 0-1.21-.37-.5-.37-.8-.87m36.14 22.11h-6.8v-23.1l-2.44-.38q-.8-.17-1.28-.57t-.48-1.14v-2.78h4.2v-2.09q0-2.42.73-4.34.73-1.93 2.09-3.27 1.36-1.35 3.32-2.07 1.95-.71 4.4-.71 1.95 0 3.63.52l-.14 3.41q-.03.39-.22.62t-.51.36q-.32.12-.73.16t-.88.04q-1.21 0-2.16.26-.95.27-1.61.91-.66.65-1 1.71-.34 1.05-.34 2.62v1.87h7.34v4.84h-7.12zm20.35.44q-3.69 0-5.66-2.08-1.96-2.07-1.96-5.73v-15.76h-2.89q-.55 0-.93-.35-.39-.36-.39-1.08v-2.69l4.54-.75 1.43-7.7q.14-.54.52-.85.39-.3.99-.3h3.52v8.88h7.54v4.84h-7.54v15.29q0 1.32.65 2.06.64.75 1.77.75.63 0 1.06-.15t.74-.32q.32-.17.57-.32.24-.15.49-.15.3 0 .5.15.19.15.41.46l2.03 3.3q-1.48 1.24-3.41 1.87-1.92.63-3.98.63m16.41-17.79h12.82q0-1.32-.37-2.49t-1.12-2.05q-.74-.88-1.88-1.39t-2.65-.51q-2.95 0-4.64 1.68t-2.16 4.76m17.33 4.09h-17.46q.16 2.18.77 3.76.6 1.58 1.59 2.61t2.35 1.54 3.01.51 2.85-.38q1.2-.39 2.09-.86.89-.46 1.57-.85.67-.39 1.3-.39.86 0 1.27.64l1.95 2.47q-1.13 1.32-2.53 2.22-1.4.89-2.93 1.43-1.52.53-3.11.75-1.58.22-3.06.22-2.94 0-5.47-.97-2.53-.98-4.4-2.89t-2.95-4.73q-1.07-2.82-1.07-6.53 0-2.89.94-5.43.93-2.55 2.68-4.43 1.74-1.89 4.26-2.98 2.52-1.11 5.68-1.11 2.67 0 4.92.86 2.26.85 3.88 2.49 1.62 1.63 2.54 4.01t.92 5.43q0 1.54-.33 2.08-.33.53-1.26.53m24.39 4.9v-12.65q-1.15-1.4-2.52-1.98-1.36-.58-2.92-.58-1.54 0-2.78.58t-2.12 1.75-1.35 2.97q-.46 1.8-.46 4.24 0 2.48.39 4.2.4 1.72 1.15 2.8.74 1.09 1.81 1.57t2.39.48q2.12 0 3.61-.88 1.48-.88 2.8-2.5m0-32.51h6.79v40.87h-4.15q-1.35 0-1.7-1.24l-.58-2.72q-1.71 1.95-3.92 3.16t-5.16 1.21q-2.31 0-4.23-.96-1.93-.96-3.32-2.79-1.38-1.83-2.14-4.53-.76-2.69-.76-6.16 0-3.13.86-5.83.85-2.69 2.44-4.67 1.6-1.98 3.83-3.09 2.22-1.12 5-1.12 2.37 0 4.04.74 1.68.75 3 2.01zm54.04 1.1h7.42v39.77h-7.42v-17.38h-18.67v17.38h-7.43v-39.77h7.43v17.11h18.67zm30.11 32.48v-4.75q-2.94.13-4.95.5t-3.22.95-1.73 1.35-.52 1.68q0 1.78 1.06 2.56 1.06.76 2.76.76 2.09 0 3.62-.75 1.52-.76 2.98-2.3m-14.35-14.82-1.21-2.17q4.86-4.46 11.71-4.46 2.48 0 4.43.81 1.95.82 3.3 2.26t2.05 3.45.7 4.4v17.82h-3.08q-.96 0-1.49-.29-.52-.29-.82-1.17l-.61-2.03q-1.07.96-2.09 1.69-1.01.73-2.11 1.22-1.1.5-2.36.76-1.25.26-2.76.26-1.79 0-3.3-.48t-2.61-1.45q-1.1-.96-1.71-2.39-.6-1.43-.6-3.33 0-1.07.36-2.13.35-1.05 1.16-2.02.82-.96 2.11-1.81 1.29-.86 3.17-1.49 1.89-.63 4.39-1.03t5.72-.48v-1.65q0-2.83-1.21-4.19-1.21-1.37-3.49-1.37-1.65 0-2.74.39-1.08.38-1.91.87-.82.48-1.5.86-.67.39-1.5.39-.71 0-1.21-.37-.49-.37-.79-.87m47.43-6.1h5.37l-11.2 28.21h-6.16l-11.19-28.21h5.61q.77 0 1.28.35.51.36.67.91l5.45 15.07q.44 1.32.77 2.59.33 1.26.58 2.53.27-1.27.6-2.53.33-1.27.8-2.59l5.55-15.07q.2-.55.69-.91.5-.35 1.18-.35m14.33 10.86h12.82q0-1.32-.38-2.49-.37-1.17-1.11-2.05t-1.88-1.39-2.66-.51q-2.94 0-4.63 1.68t-2.16 4.76m17.33 4.09h-17.47q.17 2.18.77 3.76.61 1.58 1.6 2.61t2.35 1.54 3.01.51 2.85-.38q1.19-.39 2.09-.86.89-.46 1.56-.85.68-.39 1.31-.39.85 0 1.27.64l1.95 2.47q-1.13 1.32-2.53 2.22-1.4.89-2.93 1.43-1.53.53-3.11.75t-3.06.22q-2.95 0-5.48-.97-2.53-.98-4.4-2.89t-2.94-4.73-1.07-6.53q0-2.89.93-5.43.94-2.55 2.68-4.43 1.75-1.89 4.27-2.98 2.51-1.11 5.68-1.11 2.66 0 4.92.86 2.25.85 3.88 2.49 1.62 1.63 2.54 4.01t.92 5.43q0 1.54-.33 2.08-.33.53-1.26.53m12.56-13.72.47 2.23q.85-.85 1.8-1.58t2.01-1.24 2.27-.8 2.64-.29q2.31 0 4.1.79 1.78.78 2.98 2.2t1.81 3.38q.62 1.97.62 4.33v17.96h-6.79v-17.96q0-2.58-1.18-4t-3.6-1.42q-1.76 0-3.3.8t-2.92 2.17v20.41h-6.79v-28.21h4.15q1.32 0 1.73 1.23"/></svg>